<svg width="124" height="124" viewBox="0 0 124 124" fill="none" xmlns="http://www.w3.org/2000/svg">
<path opacity="0.2" d="M15.5039 81.3749L39.8888 56.99C40.2486 56.6302 40.6758 56.3448 41.1459 56.15C41.6161 55.9553 42.12 55.8551 42.6288 55.8551C43.1377 55.8551 43.6416 55.9553 44.1117 56.15C44.5819 56.3448 45.009 56.6302 45.3689 56.99L67.0138 78.635C67.3736 78.9948 67.8008 79.2802 68.2709 79.4749C68.7411 79.6697 69.245 79.7699 69.7538 79.7699C70.2627 79.7699 70.7666 79.6697 71.2367 79.4749C71.7069 79.2802 72.134 78.9948 72.4939 78.635L82.5138 68.615C82.8736 68.2552 83.3008 67.9698 83.7709 67.775C84.2411 67.5803 84.745 67.4801 85.2538 67.4801C85.7627 67.4801 86.2666 67.5803 86.7367 67.775C87.2069 67.9698 87.634 68.2552 87.9939 68.615L108.504 89.125L108.504 27.125C108.504 26.0973 108.096 25.1117 107.369 24.385C106.642 23.6583 105.657 23.25 104.629 23.25H19.3789C18.3512 23.25 17.3656 23.6583 16.6389 24.385C15.9122 25.1117 15.5039 26.0973 15.5039 27.125V81.3749Z" fill="#B7BAC7"/>
<path d="M104.629 23.25H19.3789C17.2388 23.25 15.5039 24.9849 15.5039 27.125V96.875C15.5039 99.0151 17.2388 100.75 19.3789 100.75H104.629C106.769 100.75 108.504 99.0151 108.504 96.875V27.125C108.504 24.9849 106.769 23.25 104.629 23.25Z" stroke="#B7BAC7" stroke-width="6" stroke-linecap="round" stroke-linejoin="round"/>
<path d="M15.5039 81.3753L39.8888 56.9904C40.2486 56.6306 40.6758 56.3452 41.1459 56.1504C41.6161 55.9557 42.12 55.8555 42.6288 55.8555C43.1377 55.8555 43.6416 55.9557 44.1117 56.1504C44.5819 56.3452 45.009 56.6306 45.3689 56.9904L67.0138 78.6354C67.3736 78.9952 67.8008 79.2806 68.2709 79.4754C68.7411 79.6701 69.245 79.7703 69.7538 79.7703C70.2627 79.7703 70.7666 79.6701 71.2367 79.4754C71.7069 79.2806 72.134 78.9952 72.4939 78.6354L82.5138 68.6154C82.8736 68.2556 83.3008 67.9702 83.7709 67.7754C84.2411 67.5807 84.745 67.4805 85.2538 67.4805C85.7627 67.4805 86.2666 67.5807 86.7367 67.7754C87.2069 67.9702 87.634 68.2556 87.9939 68.6154L108.504 89.1254" stroke="#B7BAC7" stroke-width="6" stroke-linecap="round" stroke-linejoin="round"/>
<path d="M75.5664 54.25C78.7766 54.25 81.3789 51.6477 81.3789 48.4375C81.3789 45.2273 78.7766 42.625 75.5664 42.625C72.3563 42.625 69.7539 45.2273 69.7539 48.4375C69.7539 51.6477 72.3563 54.25 75.5664 54.25Z" fill="#B7BAC7"/>
</svg>
